<svg width="107" height="107" viewBox="0 0 107 107" fill="white" xmlns="http://www.w3.org/2000/svg">
<path d="M90.7351 0.253581C98.0817 -0.433119 108.295 7.06608 106.758 17.2358C105.886 22.9801 99.3679 28.3756 95.106 32.2778C83.2904 43.1233 73.1207 54.0124 61.861 65.283C59.7791 67.3649 57.0868 70.6131 55.0703 71.5941C51.2335 73.4471 46.4157 74.0902 41.478 75.7252C38.3388 76.7607 30.4363 80.6738 28.3762 78.6355C26.2507 76.5318 30.033 68.3677 31.0467 65.0432C31.777 62.667 32.3111 60.3017 32.9869 58.0018C33.6409 55.7891 34.0442 52.9551 34.9271 51.2111C35.8645 49.3472 39.2108 46.9274 41.2382 44.9C51.8003 34.3379 61.7847 24.1137 72.3032 13.5952C77.4262 8.46128 82.5492 1.00568 90.7351 0.253581ZM43.8978 68.2042C46.4157 67.3758 49.6094 67.0052 51.9093 65.7735C53.7405 64.7925 56.193 61.7296 58.2204 59.7022C68.946 48.9766 78.6361 38.7742 89.5252 28.877C92.381 26.2828 100.523 19.5139 100.447 14.8051C100.382 11.001 95.433 6.13958 90.9858 6.55378C86.2988 6.98978 79.9332 14.9795 76.9466 17.9552C66.7551 28.1467 57.1522 38.1965 46.819 48.5406C44.5845 50.7751 41.7287 52.8243 40.7477 54.8517C38.4042 59.6695 38.0445 66.2313 36.137 70.624C38.753 69.9591 41.2055 69.0871 43.8978 68.2042Z" />
<path d="M59.921 10.1946C60.2044 11.0121 58.068 12.2874 57.0107 13.3447C55.7572 14.5982 54.8634 16.146 53.3701 16.4948C50.3944 17.2142 45.7728 16.4948 41.718 16.4948C30.7635 16.4948 17.6508 16.4948 7.25221 16.4948C6.68541 43.8538 7.17591 72.2483 7.01241 99.9888C32.5729 99.9888 58.1334 99.9888 83.7048 99.9888C83.7048 90.5821 83.7048 78.7665 83.7048 68.4442C83.7048 64.7382 83.0617 60.6943 83.7048 58.0129C84.0754 56.4651 87.1819 53.9472 88.5553 52.6719C88.8823 52.3776 89.6453 51.2549 90.0159 51.9416C90.0159 65.523 90.0159 76.641 90.0159 90.5276C90.0159 94.8113 90.8225 99.8798 89.5363 102.899C87.4326 107.793 77.7752 106.54 70.3632 106.54C55.7899 106.54 39.9849 106.54 24.7358 106.54C15.6234 106.54 4.53811 108 1.68231 103.869C-0.93369 100.12 0.46151 88.2386 0.46151 82.0365C0.46151 62.3075 0.46151 44.1699 0.46151 25.0077C0.46151 17.6066 -0.42139 11.2955 5.80251 10.2055C9.90091 9.48608 14.8386 10.2055 19.3948 10.2055C32.7909 10.1946 46.3396 10.1946 59.921 10.1946Z" />
</svg>
